<?xml version="1.0" encoding="UTF-8"?>
<svg version="1.1" xmlns="http://www.w3.org/2000/svg" width="512" height="512">
<path d="M0 0 C0.85529297 -0.03738281 1.71058594 -0.07476563 2.59179688 -0.11328125 C9.01788795 -0.20151133 13.06051735 1.34281246 18.0625 5.375 C22.23223183 9.54473183 24.01158818 13.86208434 24.09765625 19.80078125 C23.65538226 26.90952664 21.9060185 31.74474539 16.5625 36.6875 C12.87429938 39.17703542 9.97853693 40.57337037 5.53515625 41.05078125 C4.66673096 41.15358398 3.79830566 41.25638672 2.90356445 41.36230469 C1.52817505 41.52327637 1.52817505 41.52327637 0.125 41.6875 C-12.08858246 43.29606213 -21.84758387 46.24253428 -31.81640625 53.82421875 C-33.9375 55.375 -33.9375 55.375 -36.08984375 56.33203125 C-38.44881919 57.6636305 -38.85830243 58.92972956 -39.9375 61.375 C-40.8525614 62.57987557 -41.79165814 63.7667552 -42.75 64.9375 C-53.05123889 78.55523531 -54.32366823 94.22044256 -54.41830444 110.67803955 C-54.52545279 125.73229669 -54.71696758 140.61046761 -57.9375 155.375 C-58.12940918 156.27702148 -58.32131836 157.17904297 -58.51904297 158.10839844 C-64.20756408 184.01156396 -75.21445356 208.69436428 -91.9375 229.375 C-92.62070313 230.26058594 -93.30390625 231.14617187 -94.0078125 232.05859375 C-109.37514952 251.59382476 -109.37514952 251.59382476 -116.9375 255.375 C-116.9375 256.035 -116.9375 256.695 -116.9375 257.375 C-115.52102329 258.8073278 -115.52102329 258.8073278 -113.625 260.3125 C-86.57842689 283.44757576 -68.04756375 315.57215383 -59.625 350 C-59.38241455 350.98806641 -59.1398291 351.97613281 -58.88989258 352.99414062 C-55.14605709 369.16052252 -54.59307659 385.02125449 -54.55664062 401.52978516 C-54.48327179 421.4090717 -51.61208815 438.07248469 -37.9375 453.375 C-37.9375 454.035 -37.9375 454.695 -37.9375 455.375 C-37.36902344 455.63667969 -36.80054688 455.89835937 -36.21484375 456.16796875 C-33.76104385 457.46852479 -31.70964092 459.00698052 -29.5 460.6875 C-19.43042277 467.70701688 -9.46968667 470.00572682 2.55200195 471.12402344 C9.99575699 471.93436159 15.13472983 474.44722983 20.4375 479.75 C24.38315865 486.12375628 24.65050174 492.21748489 23.0625 499.375 C20.91219961 504.97429706 17.31990452 508.50347457 12.17114258 511.46166992 C8.49026874 513.05599075 4.70793249 512.71339544 0.75 512.6875 C-0.59034302 512.67904053 -0.59034302 512.67904053 -1.95776367 512.67041016 C-27.89320009 512.20185116 -51.43618351 500.23094518 -69.39160156 481.88964844 C-87.42394611 462.61991642 -95.90163295 437.47567883 -96.1484375 411.37890625 C-96.17653738 409.66730866 -96.20520199 407.95572026 -96.234375 406.24414062 C-96.27522674 403.6055561 -96.3122005 400.9671371 -96.33886719 398.32836914 C-96.7265046 362.84952037 -106.6497 330.63436279 -129.9375 303.375 C-130.62328125 302.55515625 -131.3090625 301.7353125 -132.015625 300.890625 C-140.36024125 291.22527811 -150.03524101 283.65411921 -160.77392578 276.86132812 C-166.60392302 273.13038071 -171.61484058 269.0984878 -173.9375 262.375 C-174.59118007 255.86506283 -174.84433101 249.89845074 -170.9375 244.375 C-167.64063175 240.83856693 -164.32679125 238.14791501 -160.25 235.5625 C-154.51355331 231.81309666 -149.17246612 227.79358073 -143.9375 223.375 C-142.70386719 222.34439453 -142.70386719 222.34439453 -141.4453125 221.29296875 C-115.57716848 198.93032088 -100.2421528 166.15301206 -96.9375 132.375 C-96.79093855 129.42065319 -96.75446001 126.46929687 -96.7265625 123.51171875 C-96.69845169 121.80142341 -96.66978706 120.09113711 -96.640625 118.38085938 C-96.59983825 115.74015996 -96.56287591 113.09962105 -96.53613281 110.45874023 C-96.43154757 100.90992754 -96.04374267 91.55242339 -94.5703125 82.10546875 C-94.45289703 81.34940842 -94.33548157 80.59334808 -94.21450806 79.81437683 C-90.01976879 55.23455955 -74.82942014 32.43349033 -54.6953125 18.0078125 C-38.21393192 6.68070365 -20.043225 0.33079591 0 0 Z " fill="#94C6FE" transform="translate(174.9375,-0.375)"/>
<path d="M0 0 C0.89356201 0.00563965 1.78712402 0.0112793 2.70776367 0.01708984 C28.64320009 0.48564884 52.18618351 12.45655482 70.14160156 30.79785156 C88.07049162 49.95703001 96.65222535 75.34509073 96.8984375 101.2734375 C96.92654264 102.98047774 96.95520726 104.68750884 96.984375 106.39453125 C97.02518341 109.02424482 97.06215769 111.65379495 97.08886719 114.28369141 C97.27364984 131.11484226 98.71140469 147.44718587 104.3125 163.4375 C104.66022461 164.44683594 105.00794922 165.45617187 105.36621094 166.49609375 C110.9659044 182.2211919 119.12358062 195.44649908 129.6875 208.3125 C130.13851074 208.86276855 130.58952148 209.41303711 131.05419922 209.97998047 C140.49101308 221.29226049 151.91118414 230.20328259 164.44140625 237.85546875 C168.42233987 240.43788308 171.04889582 243.35459372 173.6875 247.3125 C174.13487266 250.23470813 174.05777908 253.17206361 174.0625 256.125 C174.08699219 256.91970703 174.11148438 257.71441406 174.13671875 258.53320312 C174.16359849 263.94947173 173.40803076 267.11790161 169.6875 271.3125 C167.42476492 273.13539533 165.03490125 274.66576011 162.5625 276.1875 C161.21003142 277.05516137 159.85977221 277.92627603 158.51171875 278.80078125 C157.85606934 279.22568848 157.20041992 279.6505957 156.52490234 280.08837891 C152.34411385 282.87371953 148.50677212 286.05809502 144.6875 289.3125 C143.86894531 289.99699219 143.05039062 290.68148438 142.20703125 291.38671875 C123.69240262 307.37532053 110.97644684 328.61408173 103.375 351.6875 C103.14458008 352.36844727 102.91416016 353.04939453 102.67675781 353.75097656 C97.98851196 368.88967351 97.25755706 384.58925841 97.1875 400.3125 C97.14213562 410.49384505 96.90060186 420.46170529 95.328125 430.5390625 C95.21021606 431.29783691 95.09230713 432.05661133 94.9708252 432.83837891 C92.08228909 449.75895654 83.845915 465.42409818 72.6875 478.3125 C72.08421875 479.06015625 71.4809375 479.8078125 70.859375 480.578125 C56.97098719 497.2675322 35.30343567 508.73652042 13.90625 512.0234375 C9.43661055 512.42483716 4.98600421 512.64351095 0.5 512.75 C-0.34393311 512.78456299 -1.18786621 512.81912598 -2.05737305 512.85473633 C-8.36828218 512.8962677 -12.39964869 511.26329706 -17.3125 507.3125 C-21.66608012 502.84435198 -23.0822581 498.65329267 -23.6875 492.5 C-23.51887143 486.99849289 -21.56899094 481.79826008 -17.8515625 477.703125 C-13.80326294 474.20966852 -10.0712719 472.20467574 -4.78515625 471.63671875 C-3.91673096 471.53391602 -3.04830566 471.43111328 -2.15356445 471.32519531 C-1.23663818 471.21788086 -0.31971191 471.11056641 0.625 471 C12.83858246 469.39143787 22.59758387 466.44496572 32.56640625 458.86328125 C34.6875 457.3125 34.6875 457.3125 36.83984375 456.35546875 C39.19881919 455.0238695 39.60830243 453.75777044 40.6875 451.3125 C41.6025614 450.10762443 42.54165814 448.9207448 43.5 447.75 C53.95524692 433.92867358 55.07507831 418.23383225 55.16830444 401.58166504 C55.37977142 371.0752849 55.37977142 371.0752849 58.6875 356.3125 C58.87940918 355.44431641 59.07131836 354.57613281 59.26904297 353.68164062 C67.83156673 316.36831425 87.70235721 284.20644531 115.6875 258.3125 C116.3475 257.9825 117.0075 257.6525 117.6875 257.3125 C117.6875 256.6525 117.6875 255.9925 117.6875 255.3125 C116.27102329 253.8801722 116.27102329 253.8801722 114.375 252.375 C80.55509648 223.36108277 59.14962153 179.70041413 55.6875 135.3125 C55.32048573 127.41295948 55.32362636 119.49182023 55.30664062 111.58496094 C55.2345987 91.53569341 52.49212129 74.76052859 38.6875 59.3125 C38.6875 58.6525 38.6875 57.9925 38.6875 57.3125 C38.11902344 57.05082031 37.55054688 56.78914063 36.96484375 56.51953125 C34.51104385 55.21897521 32.45964092 53.68051948 30.25 52 C20.18042277 44.98048312 10.21968667 42.68177318 -1.80200195 41.56347656 C-9.25341779 40.75230445 -14.44054517 38.26003259 -19.6875 32.875 C-22.98129087 27.68094517 -24.20214813 22.42883089 -23.3125 16.3125 C-21.19035953 9.10204544 -17.90251429 4.96275968 -11.38989258 1.20239258 C-7.72205565 -0.36879858 -3.9373628 -0.02576086 0 0 Z " fill="#D591FC" transform="translate(338.3125,-0.3125)"/>
</svg>
